<svg width="161" height="24" viewBox="0 0 161 24" fill="none" xmlns="http://www.w3.org/2000/svg">
<path d="M23.001 12.2332C23.001 11.3699 22.9296 10.7399 22.7748 10.0865H12.7153V13.9832H18.62C18.501 14.9515 17.8582 16.4099 16.4296 17.3898L16.4096 17.5203L19.5902 19.935L19.8106 19.9565C21.8343 18.1249 23.001 15.4298 23.001 12.2332Z" fill="#4285F4"/>
<path d="M12.714 22.5C15.6068 22.5 18.0353 21.5666 19.8092 19.9567L16.4282 17.3899C15.5235 18.0083 14.3092 18.4399 12.714 18.4399C9.88069 18.4399 7.47596 16.6083 6.61874 14.0766L6.49309 14.0871L3.18583 16.5954L3.14258 16.7132C4.90446 20.1433 8.5235 22.5 12.714 22.5Z" fill="#34A853"/>
<path d="M6.62046 14.0767C6.39428 13.4234 6.26337 12.7233 6.26337 12C6.26337 11.2767 6.39428 10.5767 6.60856 9.92337L6.60257 9.78423L3.25386 7.2356L3.14429 7.28667C2.41814 8.71002 2.00146 10.3084 2.00146 12C2.00146 13.6917 2.41814 15.29 3.14429 16.7133L6.62046 14.0767Z" fill="#FBBC05"/>
<path d="M12.7141 5.55997C14.7259 5.55997 16.083 6.41163 16.8569 7.12335L19.8807 4.23C18.0236 2.53834 15.6069 1.5 12.7141 1.5C8.52353 1.5 4.90447 3.85665 3.14258 7.28662L6.60686 9.92332C7.47598 7.39166 9.88073 5.55997 12.7141 5.55997Z" fill="#EB4335"/>
<path d="M39.3011 9.86364C39.2415 9.35985 38.9995 8.96875 38.5753 8.69034C38.151 8.41193 37.6307 8.27273 37.0142 8.27273C36.5634 8.27273 36.169 8.34564 35.831 8.49148C35.4962 8.63731 35.2344 8.83783 35.0455 9.09304C34.8598 9.34825 34.767 9.63826 34.767 9.96307C34.767 10.2348 34.8317 10.4685 34.9609 10.6641C35.0935 10.8563 35.2625 11.017 35.468 11.1463C35.6735 11.2723 35.889 11.3767 36.1143 11.4595C36.3397 11.5391 36.5469 11.6037 36.7358 11.6534L37.7699 11.9318C38.035 12.0014 38.33 12.0975 38.6548 12.2202C38.983 12.3428 39.2962 12.5102 39.5945 12.7223C39.8961 12.9311 40.1446 13.1996 40.3402 13.5277C40.5357 13.8558 40.6335 14.2585 40.6335 14.7358C40.6335 15.286 40.4893 15.7831 40.201 16.2273C39.916 16.6714 39.4983 17.0244 38.9482 17.2862C38.4013 17.5481 37.7367 17.679 36.9545 17.679C36.2254 17.679 35.594 17.5613 35.0604 17.326C34.5301 17.0907 34.1125 16.7625 33.8075 16.3416C33.5059 15.9207 33.3352 15.4318 33.2955 14.875H34.5682C34.6013 15.2595 34.7306 15.5777 34.956 15.8295C35.1847 16.0781 35.473 16.2637 35.821 16.3864C36.1723 16.5057 36.5502 16.5653 36.9545 16.5653C37.4252 16.5653 37.8478 16.4891 38.2223 16.3366C38.5968 16.1809 38.8935 15.9654 39.1122 15.6903C39.331 15.4119 39.4403 15.0871 39.4403 14.7159C39.4403 14.3778 39.3459 14.1027 39.157 13.8906C38.968 13.6785 38.7195 13.5062 38.4112 13.3736C38.103 13.241 37.7699 13.125 37.4119 13.0256L36.1591 12.6676C35.3636 12.4389 34.7339 12.1125 34.2699 11.6882C33.8059 11.264 33.5739 10.7088 33.5739 10.0227C33.5739 9.45265 33.728 8.95549 34.0362 8.53125C34.3478 8.10369 34.7654 7.77225 35.2891 7.53693C35.8161 7.2983 36.4044 7.17898 37.054 7.17898C37.7102 7.17898 38.2936 7.29664 38.804 7.53196C39.3144 7.76397 39.7188 8.08215 40.017 8.48651C40.3187 8.89086 40.4777 9.3499 40.4943 9.86364H39.3011ZM42.5016 17.5V9.86364H43.6749V17.5H42.5016ZM43.0982 8.59091C42.8695 8.59091 42.6723 8.51302 42.5066 8.35724C42.3442 8.20147 42.263 8.0142 42.263 7.79545C42.263 7.5767 42.3442 7.38944 42.5066 7.23366C42.6723 7.07789 42.8695 7 43.0982 7C43.3269 7 43.5224 7.07789 43.6848 7.23366C43.8506 7.38944 43.9334 7.5767 43.9334 7.79545C43.9334 8.0142 43.8506 8.20147 43.6848 8.35724C43.5224 8.51302 43.3269 8.59091 43.0982 8.59091ZM48.9062 20.5227C48.3395 20.5227 47.8523 20.4498 47.4446 20.304C47.0369 20.1615 46.6972 19.9725 46.4254 19.7372C46.157 19.5052 45.9432 19.2566 45.7841 18.9915L46.7188 18.3352C46.8248 18.4744 46.959 18.6335 47.1214 18.8125C47.2839 18.9948 47.5059 19.1522 47.7876 19.2848C48.0727 19.4207 48.4455 19.4886 48.9062 19.4886C49.5227 19.4886 50.0315 19.3395 50.4325 19.0412C50.8336 18.7429 51.0341 18.2756 51.0341 17.6392V16.0881H50.9347C50.8485 16.2273 50.7259 16.3996 50.5668 16.6051C50.411 16.8073 50.1856 16.9879 49.8906 17.147C49.599 17.3028 49.2045 17.3807 48.7074 17.3807C48.0909 17.3807 47.5374 17.2348 47.0469 16.9432C46.5597 16.6515 46.1735 16.2273 45.8885 15.6705C45.6068 15.1136 45.4659 14.4375 45.4659 13.642C45.4659 12.8598 45.6035 12.1787 45.8786 11.5987C46.1536 11.0154 46.5365 10.5646 47.027 10.2464C47.5175 9.92495 48.0843 9.7642 48.7273 9.7642C49.2244 9.7642 49.6188 9.84706 49.9105 10.0128C50.2055 10.1752 50.4309 10.3608 50.5866 10.5696C50.7457 10.7751 50.8684 10.9441 50.9545 11.0767H51.0739V9.86364H52.2074V17.7188C52.2074 18.375 52.0582 18.9086 51.7599 19.3196C51.465 19.7339 51.0672 20.0372 50.5668 20.2294C50.0696 20.425 49.5161 20.5227 48.9062 20.5227ZM48.8665 16.3267C49.3371 16.3267 49.7348 16.219 50.0597 16.0036C50.3845 15.7881 50.6314 15.4782 50.8004 15.0739C50.9695 14.6695 51.054 14.1856 51.054 13.6222C51.054 13.072 50.9711 12.5864 50.8054 12.1655C50.6397 11.7446 50.3944 11.4148 50.0696 11.1761C49.7448 10.9375 49.3438 10.8182 48.8665 10.8182C48.3693 10.8182 47.955 10.9441 47.6236 11.196C47.2955 11.4479 47.0485 11.786 46.8828 12.2102C46.7204 12.6345 46.6392 13.1051 46.6392 13.6222C46.6392 14.1525 46.7221 14.6214 46.8878 15.0291C47.0568 15.4335 47.3054 15.7517 47.6335 15.9837C47.965 16.2124 48.3759 16.3267 48.8665 16.3267ZM55.5284 12.9062V17.5H54.3551V9.86364H55.4886V11.0568H55.5881C55.767 10.669 56.0388 10.3575 56.4034 10.1222C56.768 9.88352 57.2386 9.7642 57.8153 9.7642C58.3324 9.7642 58.7848 9.87027 59.1726 10.0824C59.5604 10.2912 59.862 10.6094 60.0774 11.0369C60.2929 11.4612 60.4006 11.9981 60.4006 12.6477V17.5H59.2273V12.7273C59.2273 12.1274 59.0715 11.66 58.7599 11.3253C58.4484 10.9872 58.0208 10.8182 57.4773 10.8182C57.1027 10.8182 56.768 10.8994 56.473 11.0618C56.1813 11.2242 55.951 11.4612 55.782 11.7727C55.6129 12.0843 55.5284 12.4621 55.5284 12.9062ZM66.4821 17.5V9.86364H67.6554V17.5H66.4821ZM67.0787 8.59091C66.85 8.59091 66.6528 8.51302 66.487 8.35724C66.3246 8.20147 66.2434 8.0142 66.2434 7.79545C66.2434 7.5767 66.3246 7.38944 66.487 7.23366C66.6528 7.07789 66.85 7 67.0787 7C67.3074 7 67.5029 7.07789 67.6653 7.23366C67.831 7.38944 67.9139 7.5767 67.9139 7.79545C67.9139 8.0142 67.831 8.20147 67.6653 8.35724C67.5029 8.51302 67.3074 8.59091 67.0787 8.59091ZM70.9776 12.9062V17.5H69.8043V9.86364H70.9379V11.0568H71.0373C71.2163 10.669 71.488 10.3575 71.8526 10.1222C72.2172 9.88352 72.6879 9.7642 73.2646 9.7642C73.7816 9.7642 74.234 9.87027 74.6218 10.0824C75.0096 10.2912 75.3112 10.6094 75.5266 11.0369C75.7421 11.4612 75.8498 11.9981 75.8498 12.6477V17.5H74.6765V12.7273C74.6765 12.1274 74.5207 11.66 74.2092 11.3253C73.8976 10.9872 73.4701 10.8182 72.9265 10.8182C72.552 10.8182 72.2172 10.8994 71.9222 11.0618C71.6306 11.2242 71.4002 11.4612 71.2312 11.7727C71.0621 12.0843 70.9776 12.4621 70.9776 12.9062ZM83.6614 17.5L81.3347 9.86364H82.5676L84.2182 15.7102H84.2978L85.9284 9.86364H87.1813L88.7921 15.6903H88.8716L90.5222 9.86364H91.7551L89.4284 17.5H88.275L86.6046 11.6335H86.4853L84.8148 17.5H83.6614ZM93.3063 17.5V9.86364H94.4796V17.5H93.3063ZM93.9029 8.59091C93.6742 8.59091 93.477 8.51302 93.3113 8.35724C93.1489 8.20147 93.0676 8.0142 93.0676 7.79545C93.0676 7.5767 93.1489 7.38944 93.3113 7.23366C93.477 7.07789 93.6742 7 93.9029 7C94.1316 7 94.3271 7.07789 94.4895 7.23366C94.6552 7.38944 94.7381 7.5767 94.7381 7.79545C94.7381 8.0142 94.6552 8.20147 94.4895 8.35724C94.3271 8.51302 94.1316 8.59091 93.9029 8.59091ZM99.9496 9.86364V10.858H95.9922V9.86364H99.9496ZM97.1456 8.03409H98.3189V15.3125C98.3189 15.6439 98.367 15.8925 98.4631 16.0582C98.5625 16.2206 98.6884 16.33 98.8409 16.3864C98.9967 16.4394 99.1607 16.4659 99.3331 16.4659C99.4624 16.4659 99.5684 16.4593 99.6513 16.446C99.7341 16.4295 99.8004 16.4162 99.8501 16.4062L100.089 17.4602C100.009 17.4901 99.8982 17.5199 99.7557 17.5497C99.6132 17.5829 99.4325 17.5994 99.2138 17.5994C98.8823 17.5994 98.5575 17.5282 98.2393 17.3857C97.9245 17.2431 97.6626 17.026 97.4538 16.7344C97.2483 16.4427 97.1456 16.0748 97.1456 15.6307V8.03409ZM103.052 12.9062V17.5H101.879V7.31818H103.052V11.0568H103.151C103.33 10.6624 103.599 10.3492 103.957 10.1172C104.318 9.88187 104.799 9.7642 105.398 9.7642C105.919 9.7642 106.375 9.86861 106.766 10.0774C107.157 10.2829 107.46 10.5994 107.675 11.027C107.894 11.4512 108.004 11.9915 108.004 12.6477V17.5H106.83V12.7273C106.83 12.1207 106.673 11.6518 106.358 11.3203C106.046 10.9856 105.614 10.8182 105.06 10.8182C104.676 10.8182 104.331 10.8994 104.026 11.0618C103.725 11.2242 103.486 11.4612 103.31 11.7727C103.138 12.0843 103.052 12.4621 103.052 12.9062ZM121.207 10.5C121.097 10.1652 120.953 9.86529 120.774 9.60014C120.599 9.33168 120.388 9.10298 120.143 8.91406C119.901 8.72514 119.626 8.58097 119.318 8.48153C119.009 8.3821 118.671 8.33239 118.303 8.33239C117.7 8.33239 117.152 8.48816 116.658 8.79972C116.164 9.11127 115.771 9.57031 115.48 10.1768C115.188 10.7834 115.042 11.5275 115.042 12.4091C115.042 13.2907 115.19 14.0348 115.485 14.6413C115.78 15.2479 116.179 15.7069 116.683 16.0185C117.186 16.33 117.753 16.4858 118.383 16.4858C118.966 16.4858 119.48 16.3615 119.924 16.1129C120.372 15.861 120.72 15.5064 120.968 15.049C121.22 14.5883 121.346 14.0464 121.346 13.4233L121.724 13.5028H118.661V12.4091H122.539V13.5028C122.539 14.3414 122.36 15.0705 122.002 15.6903C121.648 16.3101 121.157 16.7907 120.531 17.1321C119.908 17.4702 119.192 17.6392 118.383 17.6392C117.481 17.6392 116.689 17.4271 116.007 17.0028C115.327 16.5786 114.797 15.9754 114.416 15.1932C114.038 14.411 113.849 13.483 113.849 12.4091C113.849 11.6037 113.957 10.8795 114.172 10.2365C114.391 9.5902 114.699 9.04001 115.097 8.58594C115.494 8.13187 115.965 7.78385 116.509 7.5419C117.052 7.29995 117.651 7.17898 118.303 7.17898C118.84 7.17898 119.341 7.26018 119.805 7.42258C120.272 7.58168 120.688 7.80871 121.053 8.10369C121.421 8.39536 121.727 8.74503 121.972 9.1527C122.218 9.55705 122.387 10.0062 122.48 10.5H121.207ZM127.594 17.6591C126.905 17.6591 126.3 17.495 125.779 17.1669C125.262 16.8388 124.858 16.3797 124.566 15.7898C124.278 15.1998 124.134 14.5104 124.134 13.7216C124.134 12.9261 124.278 12.2318 124.566 11.6385C124.858 11.0452 125.262 10.5845 125.779 10.2564C126.3 9.92827 126.905 9.7642 127.594 9.7642C128.283 9.7642 128.887 9.92827 129.404 10.2564C129.924 10.5845 130.328 11.0452 130.617 11.6385C130.908 12.2318 131.054 12.9261 131.054 13.7216C131.054 14.5104 130.908 15.1998 130.617 15.7898C130.328 16.3797 129.924 16.8388 129.404 17.1669C128.887 17.495 128.283 17.6591 127.594 17.6591ZM127.594 16.6051C128.118 16.6051 128.549 16.4709 128.887 16.2024C129.225 15.9339 129.475 15.581 129.637 15.1435C129.8 14.706 129.881 14.232 129.881 13.7216C129.881 13.2112 129.8 12.7356 129.637 12.2947C129.475 11.8539 129.225 11.4976 128.887 11.2259C128.549 10.9541 128.118 10.8182 127.594 10.8182C127.07 10.8182 126.64 10.9541 126.301 11.2259C125.963 11.4976 125.713 11.8539 125.551 12.2947C125.388 12.7356 125.307 13.2112 125.307 13.7216C125.307 14.232 125.388 14.706 125.551 15.1435C125.713 15.581 125.963 15.9339 126.301 16.2024C126.64 16.4709 127.07 16.6051 127.594 16.6051ZM135.948 17.6591C135.258 17.6591 134.653 17.495 134.133 17.1669C133.616 16.8388 133.212 16.3797 132.92 15.7898C132.632 15.1998 132.487 14.5104 132.487 13.7216C132.487 12.9261 132.632 12.2318 132.92 11.6385C133.212 11.0452 133.616 10.5845 134.133 10.2564C134.653 9.92827 135.258 9.7642 135.948 9.7642C136.637 9.7642 137.24 9.92827 137.757 10.2564C138.278 10.5845 138.682 11.0452 138.97 11.6385C139.262 12.2318 139.408 12.9261 139.408 13.7216C139.408 14.5104 139.262 15.1998 138.97 15.7898C138.682 16.3797 138.278 16.8388 137.757 17.1669C137.24 17.495 136.637 17.6591 135.948 17.6591ZM135.948 16.6051C136.471 16.6051 136.902 16.4709 137.24 16.2024C137.578 15.9339 137.829 15.581 137.991 15.1435C138.153 14.706 138.235 14.232 138.235 13.7216C138.235 13.2112 138.153 12.7356 137.991 12.2947C137.829 11.8539 137.578 11.4976 137.24 11.2259C136.902 10.9541 136.471 10.8182 135.948 10.8182C135.424 10.8182 134.993 10.9541 134.655 11.2259C134.317 11.4976 134.067 11.8539 133.904 12.2947C133.742 12.7356 133.661 13.2112 133.661 13.7216C133.661 14.232 133.742 14.706 133.904 15.1435C134.067 15.581 134.317 15.9339 134.655 16.2024C134.993 16.4709 135.424 16.6051 135.948 16.6051ZM144.281 20.5227C143.714 20.5227 143.227 20.4498 142.82 20.304C142.412 20.1615 142.072 19.9725 141.8 19.7372C141.532 19.5052 141.318 19.2566 141.159 18.9915L142.094 18.3352C142.2 18.4744 142.334 18.6335 142.496 18.8125C142.659 18.9948 142.881 19.1522 143.163 19.2848C143.448 19.4207 143.821 19.4886 144.281 19.4886C144.898 19.4886 145.406 19.3395 145.808 19.0412C146.209 18.7429 146.409 18.2756 146.409 17.6392V16.0881H146.31C146.223 16.2273 146.101 16.3996 145.942 16.6051C145.786 16.8073 145.561 16.9879 145.266 17.147C144.974 17.3028 144.58 17.3807 144.082 17.3807C143.466 17.3807 142.912 17.2348 142.422 16.9432C141.935 16.6515 141.549 16.2273 141.263 15.6705C140.982 15.1136 140.841 14.4375 140.841 13.642C140.841 12.8598 140.978 12.1787 141.254 11.5987C141.529 11.0154 141.911 10.5646 142.402 10.2464C142.893 9.92495 143.459 9.7642 144.102 9.7642C144.599 9.7642 144.994 9.84706 145.286 10.0128C145.58 10.1752 145.806 10.3608 145.962 10.5696C146.121 10.7751 146.243 10.9441 146.33 11.0767H146.449V9.86364H147.582V17.7188C147.582 18.375 147.433 18.9086 147.135 19.3196C146.84 19.7339 146.442 20.0372 145.942 20.2294C145.445 20.425 144.891 20.5227 144.281 20.5227ZM144.241 16.3267C144.712 16.3267 145.11 16.219 145.435 16.0036C145.759 15.7881 146.006 15.4782 146.175 15.0739C146.344 14.6695 146.429 14.1856 146.429 13.6222C146.429 13.072 146.346 12.5864 146.18 12.1655C146.015 11.7446 145.769 11.4148 145.445 11.1761C145.12 10.9375 144.719 10.8182 144.241 10.8182C143.744 10.8182 143.33 10.9441 142.999 11.196C142.67 11.4479 142.424 11.786 142.258 12.2102C142.095 12.6345 142.014 13.1051 142.014 13.6222C142.014 14.1525 142.097 14.6214 142.263 15.0291C142.432 15.4335 142.68 15.7517 143.009 15.9837C143.34 16.2124 143.751 16.3267 144.241 16.3267ZM150.903 7.31818V17.5H149.73V7.31818H150.903ZM156.254 17.6591C155.518 17.6591 154.884 17.4967 154.35 17.1719C153.82 16.8438 153.41 16.3864 153.122 15.7997C152.837 15.2098 152.694 14.5237 152.694 13.7415C152.694 12.9593 152.837 12.2699 153.122 11.6733C153.41 11.0734 153.811 10.6061 154.325 10.2713C154.842 9.93324 155.445 9.7642 156.135 9.7642C156.532 9.7642 156.925 9.83049 157.313 9.96307C157.701 10.0956 158.054 10.3111 158.372 10.6094C158.69 10.9044 158.944 11.2955 159.133 11.7827C159.322 12.2699 159.416 12.8698 159.416 13.5824V14.0795H153.53V13.0653H158.223C158.223 12.6345 158.137 12.25 157.964 11.9119C157.795 11.5739 157.553 11.3071 157.238 11.1115C156.927 10.916 156.559 10.8182 156.135 10.8182C155.667 10.8182 155.263 10.9342 154.922 11.1662C154.584 11.3949 154.323 11.6932 154.141 12.0611C153.959 12.429 153.868 12.8234 153.868 13.2443V13.9205C153.868 14.4972 153.967 14.986 154.166 15.3871C154.368 15.7848 154.648 16.0881 155.006 16.2969C155.364 16.5024 155.78 16.6051 156.254 16.6051C156.562 16.6051 156.841 16.562 157.089 16.4759C157.341 16.3864 157.558 16.2538 157.741 16.0781C157.923 15.8991 158.064 15.6771 158.163 15.4119L159.297 15.7301C159.177 16.1146 158.977 16.4527 158.695 16.7443C158.413 17.0327 158.065 17.258 157.651 17.4205C157.237 17.5795 156.771 17.6591 156.254 17.6591Z" fill="#2A2B2E"/>
</svg>
